<svg width="398" height="396" viewBox="0 0 398 396" fill="none" xmlns="http://www.w3.org/2000/svg">
<path d="M0.447998 394V301.328H59.2V319.12H20.8V339.088H54.08V356.24H20.8V394H0.447998Z" fill="#E4E4E4"/>
<path d="M81.292 322.192C75.148 322.192 70.028 317.2 70.028 311.056C70.028 304.912 75.148 299.92 81.292 299.92C87.436 299.92 92.556 304.912 92.556 311.056C92.556 317.2 87.436 322.192 81.292 322.192ZM71.564 394V330.512H91.02V394H71.564Z" fill="#E4E4E4"/>
<path d="M101.557 346.64V330.512H112.053V314.896L131.381 310.16V330.512H148.277V346.64H131.381V369.04C131.381 375.696 134.197 379.152 139.957 379.152C142.901 379.152 145.973 378.256 148.277 377.36V392.72C145.077 394.256 139.829 395.408 134.453 395.408C119.349 395.408 112.053 386.832 112.053 371.088V346.64H101.557Z" fill="#E4E4E4"/>
<path d="M210.273 390.544C205.153 393.872 197.601 395.408 190.561 395.408C169.313 395.408 154.849 381.584 154.849 362.384C154.849 342.416 170.593 329.104 191.073 329.104C197.985 329.104 204.897 330.768 209.761 333.84V351.12C204.769 347.792 198.881 345.616 192.609 345.616C181.601 345.616 174.305 352.656 174.305 362.256C174.305 371.984 181.729 378.896 192.865 378.896C199.265 378.896 206.177 376.464 210.273 373.264V390.544Z" fill="#E4E4E4"/>
<path d="M283.837 393.488C281.277 394.512 277.821 395.28 274.109 395.28C267.837 395.28 262.845 393.232 259.901 389.52C255.677 392.72 249.405 395.408 241.725 395.408C228.925 395.408 219.581 388.496 219.581 376.08C219.581 362.384 229.821 356.24 245.693 356.24C249.149 356.24 253.117 356.496 256.573 357.136V354.832C256.573 348.176 252.093 345.36 243.005 345.36C235.453 345.36 229.053 347.408 224.957 349.584V333.968C229.821 331.28 237.629 329.104 246.973 329.104C264.637 329.104 275.773 336.528 275.773 352.656V375.056C275.773 377.744 277.053 379.664 280.509 379.664C281.789 379.664 282.813 379.408 283.837 378.896V393.488ZM246.973 381.328C250.685 381.328 254.525 380.176 256.573 378.512V368.656C254.653 368.272 251.453 367.888 249.021 367.888C243.261 367.888 238.525 369.68 238.525 374.8C238.525 379.408 241.981 381.328 246.973 381.328Z" fill="#E4E4E4"/>
<path d="M316.235 395.408C308.171 395.408 297.675 393.872 290.251 389.904V373.136C298.827 378.384 309.707 380.56 315.979 380.56C321.611 380.56 324.939 378.896 324.939 375.952C324.939 373.136 323.019 372.112 317.771 370.96C312.523 369.808 303.563 368.016 297.931 365.2C292.299 362.384 289.355 357.776 289.355 350.224C289.355 336.272 300.491 329.104 316.363 329.104C324.043 329.104 333.771 330.896 340.555 334.224V349.968C332.235 345.744 322.763 343.952 317.131 343.952C312.011 343.952 308.811 345.36 308.811 348.432C308.811 351.248 311.243 352.144 316.235 353.296C321.227 354.448 330.187 355.984 335.691 358.8C341.451 361.744 344.395 366.352 344.395 374.032C344.395 388.88 331.979 395.408 316.235 395.408Z" fill="#E4E4E4"/>
<path d="M350.557 346.64V330.512H361.053V314.896L380.381 310.16V330.512H397.277V346.64H380.381V369.04C380.381 375.696 383.197 379.152 388.957 379.152C391.901 379.152 394.973 378.256 397.277 377.36V392.72C394.077 394.256 388.829 395.408 383.453 395.408C368.349 395.408 361.053 386.832 361.053 371.088V346.64H350.557Z" fill="#E4E4E4"/>
<path d="M65 57.6903C65 25.8288 90.8288 0 122.69 0H270.31C302.171 0 328 25.8288 328 57.6903V205.31C328 237.171 302.171 263 270.31 263H122.69C90.8288 263 65 237.171 65 205.31V57.6903Z" fill="white"/>
<path d="M195.595 106.385C195.462 106.385 195.329 106.385 195.196 106.385C193.553 100.799 190.515 95.5358 186.099 91.1336C172.017 77.0845 149.171 77.0845 135.088 91.1336C130.625 95.5831 127.577 100.913 125.944 106.565C121.253 104.908 115.822 105.959 112.071 109.699C107.523 114.233 106.953 121.239 110.352 126.389C102.547 130.545 97.2387 138.734 97.2387 148.163C97.2387 161.777 108.311 172.815 121.965 172.815H195.595C213.997 172.815 228.915 157.943 228.915 139.595C228.915 121.248 213.997 106.385 195.595 106.385Z" fill="#A9A9A9"/>
<path d="M260.487 110.038C257.193 110.038 253.994 110.479 250.968 111.314C248.995 107.419 246.381 103.774 243.135 100.513C226.558 83.9084 199.686 83.9084 183.099 100.513C171.732 111.899 168.16 128.129 172.383 142.556C170.832 142.173 169.204 141.962 167.538 141.962C156.391 141.962 147.35 151.017 147.35 162.182C147.35 173.348 156.391 182.403 167.538 182.403H260.487C280.435 182.403 296.61 166.202 296.61 146.221C296.61 126.24 280.435 110.038 260.487 110.038Z" fill="#E4E4E4"/>
</svg>
