<svg width="197" height="197" viewBox="0 0 197 197" fill="none" xmlns="http://www.w3.org/2000/svg">
<path d="M0 43.2129C0 19.3471 19.3471 0 43.2129 0H153.787C177.653 0 197 19.3471 197 43.2129V153.787C197 177.653 177.653 197 153.787 197H43.2129C19.3471 197 0 177.653 0 153.787V43.2129Z" fill="white"/>
<path d="M97.822 79.6877C97.7224 79.6877 97.6229 79.6877 97.5233 79.6877C96.2928 75.5038 94.0167 71.561 90.7093 68.2636C80.1611 57.7401 63.0479 57.7401 52.4997 68.2636C49.1567 71.5965 46.8736 75.5889 45.6502 79.8224C42.1365 78.5814 38.068 79.3685 35.2585 82.1696C31.8515 85.5663 31.4247 90.8139 33.9711 94.6716C28.1244 97.7846 24.1484 103.919 24.1484 110.982C24.1484 121.179 32.4418 129.447 42.6699 129.447H97.822C111.606 129.447 122.781 118.307 122.781 104.564C122.781 90.821 111.606 79.6877 97.822 79.6877Z" fill="#A9A9A9"/>
<path d="M146.43 82.424C143.962 82.424 141.566 82.7545 139.299 83.3796C137.822 80.4625 135.863 77.7321 133.432 75.2891C121.015 62.8516 100.886 62.8516 88.4623 75.2891C79.9477 83.8179 77.272 95.9753 80.4354 106.782C79.2734 106.494 78.0539 106.336 76.8058 106.336C68.4561 106.336 61.6845 113.119 61.6845 121.483C61.6845 129.846 68.4561 136.629 76.8058 136.629H146.43C161.371 136.629 173.487 124.493 173.487 109.527C173.487 94.5598 161.371 82.424 146.43 82.424Z" fill="#E4E4E4"/>
</svg>
