<svg width="643" height="197" viewBox="0 0 643 197" fill="none" xmlns="http://www.w3.org/2000/svg">
<path d="M245.448 144V51.328H304.2V69.12H265.8V89.088H299.08V106.24H265.8V144H245.448Z" fill="#E4E4E4"/>
<path d="M326.292 72.192C320.148 72.192 315.028 67.2 315.028 61.056C315.028 54.912 320.148 49.92 326.292 49.92C332.436 49.92 337.556 54.912 337.556 61.056C337.556 67.2 332.436 72.192 326.292 72.192ZM316.564 144V80.512H336.02V144H316.564Z" fill="#E4E4E4"/>
<path d="M346.557 96.64V80.512H357.053V64.896L376.381 60.16V80.512H393.277V96.64H376.381V119.04C376.381 125.696 379.197 129.152 384.957 129.152C387.901 129.152 390.973 128.256 393.277 127.36V142.72C390.077 144.256 384.829 145.408 379.453 145.408C364.349 145.408 357.053 136.832 357.053 121.088V96.64H346.557Z" fill="#E4E4E4"/>
<path d="M455.273 140.544C450.153 143.872 442.601 145.408 435.561 145.408C414.313 145.408 399.849 131.584 399.849 112.384C399.849 92.416 415.593 79.104 436.073 79.104C442.985 79.104 449.897 80.768 454.761 83.84V101.12C449.769 97.792 443.881 95.616 437.609 95.616C426.601 95.616 419.305 102.656 419.305 112.256C419.305 121.984 426.729 128.896 437.865 128.896C444.265 128.896 451.177 126.464 455.273 123.264V140.544Z" fill="#E4E4E4"/>
<path d="M528.837 143.488C526.277 144.512 522.821 145.28 519.109 145.28C512.837 145.28 507.845 143.232 504.901 139.52C500.677 142.72 494.405 145.408 486.725 145.408C473.925 145.408 464.581 138.496 464.581 126.08C464.581 112.384 474.821 106.24 490.693 106.24C494.149 106.24 498.117 106.496 501.573 107.136V104.832C501.573 98.176 497.093 95.36 488.005 95.36C480.453 95.36 474.053 97.408 469.957 99.584V83.968C474.821 81.28 482.629 79.104 491.973 79.104C509.637 79.104 520.773 86.528 520.773 102.656V125.056C520.773 127.744 522.053 129.664 525.509 129.664C526.789 129.664 527.813 129.408 528.837 128.896V143.488ZM491.973 131.328C495.685 131.328 499.525 130.176 501.573 128.512V118.656C499.653 118.272 496.453 117.888 494.021 117.888C488.261 117.888 483.525 119.68 483.525 124.8C483.525 129.408 486.981 131.328 491.973 131.328Z" fill="#E4E4E4"/>
<path d="M561.235 145.408C553.171 145.408 542.675 143.872 535.251 139.904V123.136C543.827 128.384 554.707 130.56 560.979 130.56C566.611 130.56 569.939 128.896 569.939 125.952C569.939 123.136 568.019 122.112 562.771 120.96C557.523 119.808 548.563 118.016 542.931 115.2C537.299 112.384 534.355 107.776 534.355 100.224C534.355 86.272 545.491 79.104 561.363 79.104C569.043 79.104 578.771 80.896 585.555 84.224V99.968C577.235 95.744 567.763 93.952 562.131 93.952C557.011 93.952 553.811 95.36 553.811 98.432C553.811 101.248 556.243 102.144 561.235 103.296C566.227 104.448 575.187 105.984 580.691 108.8C586.451 111.744 589.395 116.352 589.395 124.032C589.395 138.88 576.979 145.408 561.235 145.408Z" fill="#E4E4E4"/>
<path d="M595.557 96.64V80.512H606.053V64.896L625.381 60.16V80.512H642.277V96.64H625.381V119.04C625.381 125.696 628.197 129.152 633.957 129.152C636.901 129.152 639.973 128.256 642.277 127.36V142.72C639.077 144.256 633.829 145.408 628.453 145.408C613.349 145.408 606.053 136.832 606.053 121.088V96.64H595.557Z" fill="#E4E4E4"/>
<path d="M0 43.2129C0 19.3471 19.3471 0 43.2129 0H153.787C177.653 0 197 19.3471 197 43.2129V153.787C197 177.653 177.653 197 153.787 197H43.2129C19.3471 197 0 177.653 0 153.787V43.2129Z" fill="white"/>
<path d="M97.822 79.6877C97.7224 79.6877 97.6229 79.6877 97.5233 79.6877C96.2928 75.5038 94.0167 71.561 90.7093 68.2636C80.1611 57.7401 63.0479 57.7401 52.4997 68.2636C49.1567 71.5965 46.8736 75.5889 45.6502 79.8224C42.1365 78.5814 38.068 79.3685 35.2585 82.1696C31.8515 85.5663 31.4247 90.8139 33.9711 94.6716C28.1244 97.7846 24.1484 103.919 24.1484 110.982C24.1484 121.179 32.4418 129.447 42.6699 129.447H97.822C111.606 129.447 122.781 118.307 122.781 104.564C122.781 90.821 111.606 79.6877 97.822 79.6877Z" fill="#A9A9A9"/>
<path d="M146.43 82.424C143.962 82.424 141.566 82.7545 139.299 83.3796C137.822 80.4625 135.863 77.7321 133.432 75.2891C121.015 62.8516 100.886 62.8516 88.4623 75.2891C79.9477 83.8179 77.272 95.9753 80.4354 106.782C79.2734 106.494 78.0539 106.336 76.8058 106.336C68.4561 106.336 61.6845 113.119 61.6845 121.483C61.6845 129.846 68.4561 136.629 76.8058 136.629H146.43C161.371 136.629 173.487 124.493 173.487 109.527C173.487 94.5598 161.371 82.424 146.43 82.424Z" fill="#E4E4E4"/>
</svg>
