<svg width="37" height="27" viewBox="0 0 37 27" fill="none" xmlns="http://www.w3.org/2000/svg">
<mask id="mask0_170_16" style="mask-type:luminance" maskUnits="userSpaceOnUse" x="0" y="0" width="37" height="24">
<path d="M37 0H0V23.7714H37V0Z" fill="white"/>
</mask>
<g mask="url(#mask0_170_16)">
<path d="M18.5 31.2C22.7913 31.2 26.27 27.7078 26.27 23.4C26.27 19.0922 22.7913 15.6 18.5 15.6C14.2088 15.6 10.73 19.0922 10.73 23.4C10.73 27.7078 14.2088 31.2 18.5 31.2Z" fill="url(#paint0_linear_170_16)"/>
<path fill-rule="evenodd" clip-rule="evenodd" d="M18.5 15.7857C14.3109 15.7857 10.915 19.1948 10.915 23.4C10.915 27.6053 14.3109 31.0143 18.5 31.0143C22.6891 31.0143 26.085 27.6053 26.085 23.4C26.085 19.1948 22.6891 15.7857 18.5 15.7857ZM10.545 23.4C10.545 18.9896 14.1066 15.4143 18.5 15.4143C22.8934 15.4143 26.455 18.9896 26.455 23.4C26.455 27.8104 22.8934 31.3857 18.5 31.3857C14.1066 31.3857 10.545 27.8104 10.545 23.4Z" fill="#F8AF18"/>
<path fill-rule="evenodd" clip-rule="evenodd" d="M18.5 5.57144C19.113 5.57144 19.61 6.07032 19.61 6.68573V11.2989C19.61 11.9143 19.113 12.4132 18.5 12.4132C17.887 12.4132 17.39 11.9143 17.39 11.2989V6.68573C17.39 6.07032 17.887 5.57144 18.5 5.57144ZM31.0583 10.7932C31.4918 11.2284 31.4918 11.9339 31.0583 12.3691L27.8097 15.6302C27.3762 16.0654 26.6734 16.0654 26.2399 15.6302C25.8064 15.1951 25.8064 14.4895 26.2399 14.0544L29.4885 10.7932C29.922 10.3581 30.6248 10.3581 31.0583 10.7932ZM5.94172 10.823C6.3752 10.3878 7.07801 10.3878 7.51149 10.823L10.7601 14.0841C11.1936 14.5193 11.1936 15.2248 10.7601 15.6599C10.3266 16.0951 9.6238 16.0951 9.19032 15.6599L5.94172 12.3988C5.50823 11.9636 5.50823 11.2581 5.94172 10.823ZM0.740005 23.4C0.740005 22.7846 1.23697 22.2857 1.85001 22.2857H6.44541C7.05844 22.2857 7.55541 22.7846 7.55541 23.4C7.55541 24.0154 7.05844 24.5143 6.44541 24.5143H1.85001C1.23697 24.5143 0.740005 24.0154 0.740005 23.4ZM29.4446 23.4C29.4446 22.7846 29.9416 22.2857 30.5546 22.2857H35.15C35.763 22.2857 36.26 22.7846 36.26 23.4C36.26 24.0154 35.763 24.5143 35.15 24.5143H30.5546C29.9416 24.5143 29.4446 24.0154 29.4446 23.4ZM10.7601 31.1698C11.1936 31.605 11.1936 32.3105 10.7601 32.7456L7.51149 36.0068C7.07801 36.4419 6.3752 36.4419 5.94172 36.0068C5.50823 35.5716 5.50823 34.8661 5.94172 34.431L9.19032 31.1698C9.6238 30.7347 10.3266 30.7347 10.7601 31.1698ZM26.2399 31.1698C26.6734 30.7347 27.3762 30.7347 27.8097 31.1698L31.0583 34.431C31.4918 34.8661 31.4918 35.5716 31.0583 36.0068C30.6248 36.4419 29.922 36.4419 29.4885 36.0068L26.2399 32.7456C25.8064 32.3105 25.8064 31.605 26.2399 31.1698ZM18.5 34.3869C19.113 34.3869 19.61 34.8858 19.61 35.5012V40.1143C19.61 40.7297 19.113 41.2286 18.5 41.2286C17.887 41.2286 17.39 40.7297 17.39 40.1143V35.5012C17.39 34.8858 17.887 34.3869 18.5 34.3869Z" fill="#FBBF24"/>
</g>
<path d="M6.66 26H14.8L18.5 22.6571L22.2 26H30.34" stroke="#374151" stroke-width="2" stroke-linecap="round" stroke-linejoin="round"/>
<defs>
<linearGradient id="paint0_linear_170_16" x1="14.615" y1="16.6474" x2="22.43" y2="30.1265" gradientUnits="userSpaceOnUse">
<stop stop-color="#FBBF24"/>
<stop offset="0.45" stop-color="#FBBF24"/>
<stop offset="1" stop-color="#F59E0B"/>
</linearGradient>
</defs>
</svg>
