<svg width="37" height="27" viewBox="0 0 37 27" fill="none" xmlns="http://www.w3.org/2000/svg">
<mask id="mask0_170_5" style="mask-type:luminance" maskUnits="userSpaceOnUse" x="0" y="0" width="37" height="22">
<path d="M37 0H0V21.0633H37V0Z" fill="white"/>
</mask>
<g mask="url(#mask0_170_5)">
<path d="M18.5 27.6456C22.6262 27.6456 25.9712 24.5512 25.9712 20.7342C25.9712 16.9171 22.6262 13.8228 18.5 13.8228C14.3738 13.8228 11.0288 16.9171 11.0288 20.7342C11.0288 24.5512 14.3738 27.6456 18.5 27.6456Z" fill="url(#paint0_linear_170_5)" stroke="#F8AF18" stroke-width="0.5" stroke-miterlimit="10"/>
<path d="M18.5 10.0116V5.92404M18.5 35.5443V31.4567M26.6969 13.1514L29.8206 10.2618M7.17942 31.2066L10.3031 28.317M10.3031 13.1777L7.17942 10.2881M29.8206 31.2066L26.6969 28.317M6.90904 20.7342H2.49039M34.5096 20.7342H30.091" stroke="#FBBF24" stroke-width="3" stroke-miterlimit="10" stroke-linecap="round"/>
</g>
<path d="M7.11539 23.038H14.9423L18.5 26L22.0577 23.038H29.8846" stroke="#374151" stroke-width="2" stroke-linecap="round" stroke-linejoin="round"/>
<defs>
<linearGradient id="paint0_linear_170_5" x1="14.7644" y1="14.7509" x2="21.3973" y2="27.1654" gradientUnits="userSpaceOnUse">
<stop stop-color="#FBBF24"/>
<stop offset="0.45" stop-color="#FBBF24"/>
<stop offset="1" stop-color="#F59E0B"/>
</linearGradient>
</defs>
</svg>
